<?xml version="1.0" encoding="UTF-8"?>
<svg version="1.1" xmlns="http://www.w3.org/2000/svg" width="1563" height="1563" viewBox="0 0 1563 1563">
<path d="M0 0 C5.80034665 1.57960086 9.92003033 1.13726883 15.54272461 -0.70361328 C30.13665159 -5.0193271 46.72637355 -3.67519131 60.54272461 2.67529297 C62.60867539 3.80833785 64.59324166 4.97507049 66.54272461 6.29638672 C66.54272461 6.95638672 66.54272461 7.61638672 66.54272461 8.29638672 C67.09959961 8.52326172 67.65647461 8.75013672 68.23022461 8.98388672 C75.00540036 12.82925674 78.12161243 19.12577362 80.54272461 26.29638672 C80.67944336 29.14013672 80.67944336 29.14013672 80.54272461 31.29638672 C79.22272461 31.62638672 77.90272461 31.95638672 76.54272461 32.29638672 C77.75186523 32.23837891 78.96100586 32.18037109 80.20678711 32.12060547 C94.35790505 31.64469378 106.17631663 33.19755386 117.28881836 42.93701172 C124.33599072 50.31394777 128.80917541 58.24471487 130.54272461 68.29638672 C130.70643555 69.14458984 130.87014648 69.99279297 131.03881836 70.86669922 C132.90583864 83.76261251 129.22635014 96.88694079 122.01147461 107.56201172 C121.28444336 108.42052734 121.28444336 108.42052734 120.54272461 109.29638672 C119.88272461 109.29638672 119.22272461 109.29638672 118.54272461 109.29638672 C117.55272461 111.27638672 117.55272461 111.27638672 116.54272461 113.29638672 C115.88272461 113.29638672 115.22272461 113.29638672 114.54272461 113.29638672 C114.54272461 113.95638672 114.54272461 114.61638672 114.54272461 115.29638672 C105.74063762 120.46719448 98.13920921 124.28463147 87.80151367 124.44433594 C81.74207532 124.37894636 81.74207532 124.37894636 76.49584961 126.92138672 C75.01161706 128.95891728 75.01161706 128.95891728 73.80444336 131.15185547 C72.41609922 133.51161068 70.92111463 135.01162812 68.85522461 136.79638672 C68.29448242 137.28107422 67.73374023 137.76576172 67.15600586 138.26513672 C65.54272461 139.29638672 65.54272461 139.29638672 62.54272461 139.29638672 C62.54272461 139.95638672 62.54272461 140.61638672 62.54272461 141.29638672 C60.48222606 142.1139491 58.41923608 142.92523405 56.35522461 143.73388672 C55.20666992 144.18634766 54.05811523 144.63880859 52.87475586 145.10498047 C39.00555137 150.06407469 23.19027151 147.91984138 9.54272461 143.29638672 C5.74466668 142.03036741 4.38452265 142.82740738 0.66772461 144.17138672 C-13.91265058 149.39693472 -30.02954412 148.91172531 -44.45727539 143.29638672 C-45.80277106 142.65462069 -47.14211635 141.9982264 -48.45727539 141.29638672 C-48.45727539 140.63638672 -48.45727539 139.97638672 -48.45727539 139.29638672 C-49.32352539 139.14943359 -49.32352539 139.14943359 -50.20727539 138.99951172 C-55.97008082 137.19863502 -61.13688711 131.13861963 -64.45727539 126.29638672 C-64.45727539 125.63638672 -64.45727539 124.97638672 -64.45727539 124.29638672 C-65.38926758 124.34279297 -66.32125977 124.38919922 -67.28149414 124.43701172 C-79.59075023 124.78550431 -90.34354111 122.8321103 -100.45727539 115.29638672 C-100.45727539 114.63638672 -100.45727539 113.97638672 -100.45727539 113.29638672 C-101.77727539 112.63638672 -103.09727539 111.97638672 -104.45727539 111.29638672 C-104.45727539 110.63638672 -104.45727539 109.97638672 -104.45727539 109.29638672 C-105.44727539 108.96638672 -106.43727539 108.63638672 -107.45727539 108.29638672 C-115.12936589 98.58639718 -118.31806049 85.48202498 -117.17211914 73.25341797 C-116.71612365 70.2300529 -116.13781039 67.27680204 -115.45727539 64.29638672 C-115.28454102 63.51392578 -115.11180664 62.73146484 -114.93383789 61.92529297 C-111.80681463 50.53399395 -103.4811075 42.06110748 -93.45727539 36.29638672 C-83.32588942 31.06010671 -72.53637152 31.90226867 -61.45727539 32.29638672 C-63.10727539 31.96638672 -64.75727539 31.63638672 -66.45727539 31.29638672 C-66.00402944 22.98687769 -63.04984228 16.75478973 -57.26977539 10.73388672 C-54.45727539 8.29638672 -54.45727539 8.29638672 -52.45727539 8.29638672 C-52.45727539 7.63638672 -52.45727539 6.97638672 -52.45727539 6.29638672 C-36.84960282 -4.28214691 -17.59684227 -5.04103906 0 0 Z M-40.45727539 24.29638672 C-43.58261804 28.26641656 -44.97763511 31.26016376 -45.45727539 36.29638672 C-46.77727539 36.62638672 -48.09727539 36.95638672 -49.45727539 37.29638672 C-48.88879883 37.70888672 -48.32032227 38.12138672 -47.73461914 38.54638672 C-37.07791852 46.51667366 -30.76068292 54.44477792 -27.92993164 67.78076172 C-27.64706372 69.96620704 -27.512832 72.09396383 -27.45727539 74.29638672 C-27.41860352 75.08400391 -27.37993164 75.87162109 -27.34008789 76.68310547 C-27.00342875 88.59709843 -29.65226427 98.38196977 -36.45727539 108.29638672 C-39.25944367 111.2586789 -42.19798402 113.85007052 -45.45727539 116.29638672 C-44.75298232 120.03151399 -43.42800711 121.72613061 -40.35961914 124.05810547 C-31.60503929 129.75667182 -22.61898332 130.28833551 -12.45727539 129.29638672 C-11.46727539 128.63638672 -10.47727539 127.97638672 -9.45727539 127.29638672 C-9.79500977 126.71373047 -10.13274414 126.13107422 -10.48071289 125.53076172 C-14.13799924 118.80811975 -15.48717897 112.88077694 -16.45727539 105.29638672 C-9.19727539 105.29638672 -1.93727539 105.29638672 5.54272461 105.29638672 C6.03772461 108.76138672 6.03772461 108.76138672 6.54272461 112.29638672 C8.91252474 109.34261174 8.91252474 109.34261174 8.54272461 105.29638672 C15.80272461 105.29638672 23.06272461 105.29638672 30.54272461 105.29638672 C27.68558175 121.29638672 27.68558175 121.29638672 23.54272461 128.29638672 C34.73109883 130.33063658 44.47339135 130.13720843 54.54272461 124.29638672 C56.89283083 122.36214291 57.97421407 120.96866393 59.54272461 118.29638672 C58.40899446 114.89519627 57.69280482 114.48930363 54.91772461 112.42138672 C46.44813549 105.15521044 42.8361699 95.45894773 41.75366211 84.57373047 C41.64924805 82.95144531 41.64924805 82.95144531 41.54272461 81.29638672 C41.43831055 79.96800781 41.43831055 79.96800781 41.33178711 78.61279297 C40.82009028 66.31238844 44.94508353 55.22295011 52.91772461 46.04638672 C56.21873867 42.49984269 59.32876957 39.67348956 63.54272461 37.29638672 C62.22272461 36.96638672 60.90272461 36.63638672 59.54272461 36.29638672 C59.50147461 35.47138672 59.46022461 34.64638672 59.41772461 33.79638672 C57.84191401 27.49314433 53.99504683 22.97615273 48.60522461 19.42138672 C41.28270018 15.32573746 33.84601191 14.43959835 25.54272461 15.29638672 C24.88272461 15.95638672 24.22272461 16.61638672 23.54272461 17.29638672 C23.81987305 17.86486328 24.09702148 18.43333984 24.38256836 19.01904297 C29.57193657 30.08107699 30.18685159 42.5766944 26.54272461 54.29638672 C25.89245725 55.96951988 25.22923693 57.63779603 24.54272461 59.29638672 C26.64524322 59.96823289 28.74980224 60.6336964 30.85522461 61.29638672 C32.02698242 61.66763672 33.19874023 62.03888672 34.40600586 62.42138672 C37.48159137 63.43073444 37.48159137 63.43073444 40.54272461 63.29638672 C40.2971582 64.56869141 40.2971582 64.56869141 40.04663086 65.86669922 C39.53324016 69.36093982 39.44421722 72.64266246 39.48022461 76.17138672 C39.48924805 77.32380859 39.49827148 78.47623047 39.50756836 79.66357422 C39.51916992 80.53240234 39.53077148 81.40123047 39.54272461 82.29638672 C38.16682844 82.0089773 36.79205139 81.71620929 35.41772461 81.42138672 C34.65202148 81.25896484 33.88631836 81.09654297 33.09741211 80.92919922 C30.1793859 80.20638539 27.38615899 79.27316552 24.54272461 78.29638672 C21.88179281 77.38244756 19.21459376 76.4903022 16.54272461 75.60888672 C15.85694336 75.37105469 15.17116211 75.13322266 14.46459961 74.88818359 C7.17019328 72.51471741 1.95640474 74.36352491 -5.08227539 76.67138672 C-11.81233511 78.83160454 -18.57055637 80.69209422 -25.45727539 82.29638672 C-25.44567383 81.42755859 -25.43407227 80.55873047 -25.42211914 79.66357422 C-25.4130957 78.51115234 -25.40407227 77.35873047 -25.39477539 76.17138672 C-25.38317383 75.03443359 -25.37157227 73.89748047 -25.35961914 72.72607422 C-25.45194839 69.48347112 -25.84337633 66.4770606 -26.45727539 63.29638672 C-25.80500977 63.17521484 -25.15274414 63.05404297 -24.48071289 62.92919922 C-19.67081197 62.00694683 -15.06702074 60.99471395 -10.45727539 59.29638672 C-10.74602539 58.59513672 -11.03477539 57.89388672 -11.33227539 57.17138672 C-11.70352539 56.22263672 -12.07477539 55.27388672 -12.45727539 54.29638672 C-12.80145508 53.43400391 -13.14563477 52.57162109 -13.50024414 51.68310547 C-14.69299353 47.46223315 -14.88077311 43.60128562 -14.89477539 39.23388672 C-14.90057617 37.9861145 -14.90057617 37.9861145 -14.90649414 36.71313477 C-14.76582149 29.10875238 -12.88759156 23.12026567 -9.45727539 16.29638672 C-21.18798102 14.38116947 -31.81653732 15.44489894 -40.45727539 24.29638672 Z M6.54272461 28.29638672 C5.36563993 32.85758984 5.02521766 37.61251025 5.54272461 42.29638672 C6.53272461 43.78138672 6.53272461 43.78138672 7.54272461 45.29638672 C9.35868657 39.84850084 8.97140514 33.83252378 7.54272461 28.29638672 C7.21272461 28.29638672 6.88272461 28.29638672 6.54272461 28.29638672 Z M-57.45727539 32.29638672 C-57.45727539 32.95638672 -57.45727539 33.61638672 -57.45727539 34.29638672 C-55.67498603 35.43848489 -55.67498603 35.43848489 -53.45727539 36.29638672 C-52.13727539 35.96638672 -50.81727539 35.63638672 -49.45727539 35.29638672 C-52.09727539 34.30638672 -54.73727539 33.31638672 -57.45727539 32.29638672 Z M70.54272461 32.29638672 C67.07772461 33.78138672 67.07772461 33.78138672 63.54272461 35.29638672 C66.14854832 36.22703805 67.18470685 36.44556079 69.79272461 35.35888672 C70.37022461 35.00826172 70.94772461 34.65763672 71.54272461 34.29638672 C71.21272461 33.63638672 70.88272461 32.97638672 70.54272461 32.29638672 Z M-92.45727539 55.29638672 C-93.15852539 56.10076172 -93.85977539 56.90513672 -94.58227539 57.73388672 C-99.0409312 63.827383 -100.0887527 68.91476546 -100.45727539 76.29638672 C-100.51012695 77.07626953 -100.56297852 77.85615234 -100.61743164 78.65966797 C-100.83586045 84.15837593 -99.80309014 88.34072612 -97.45727539 93.29638672 C-96.90040039 94.49263672 -96.34352539 95.68888672 -95.76977539 96.92138672 C-91.93414023 103.33363175 -85.27499743 106.7925014 -78.45727539 109.29638672 C-68.60476486 110.69519994 -61.62207276 109.96644387 -53.39868164 104.12060547 C-51.21358997 102.3566948 -51.21358997 102.3566948 -50.45727539 99.29638672 C-49.79727539 99.29638672 -49.13727539 99.29638672 -48.45727539 99.29638672 C-46.08747526 96.34261174 -46.08747526 96.34261174 -46.45727539 92.29638672 C-45.79727539 92.29638672 -45.13727539 92.29638672 -44.45727539 92.29638672 C-42.55687889 82.53595031 -41.36501101 68.97258843 -46.75024414 60.18701172 C-51.94725079 52.8657787 -57.81703278 48.77224571 -66.45727539 46.29638672 C-76.02899925 44.79139869 -86.27962643 47.62112589 -92.45727539 55.29638672 Z M62.54272461 57.29638672 C58.15429554 63.98715104 57.37369059 70.32978009 57.41772461 78.23388672 C57.41385742 78.92417969 57.40999023 79.61447266 57.40600586 80.32568359 C57.41376849 84.42046995 57.75075584 88.27997368 58.54272461 92.29638672 C60.02772461 91.80138672 60.02772461 91.80138672 61.54272461 91.29638672 C61.21272461 90.24451172 60.88272461 89.19263672 60.54272461 88.10888672 C59.04200625 82.24340299 59.37784158 76.30545729 59.54272461 70.29638672 C69.99849909 75.6358709 76.86273486 81.37202863 81.54272461 92.29638672 C82.1372963 95.07253962 82.45196283 97.84792314 82.73022461 100.67138672 C82.85300781 101.77546875 82.85300781 101.77546875 82.97827148 102.90185547 C83.17665017 104.69893297 83.36113038 106.49753565 83.54272461 108.29638672 C80.90272461 107.96638672 78.26272461 107.63638672 75.54272461 107.29638672 C78.74392399 110.4975861 82.85489821 109.7923353 87.1574707 109.80053711 C95.64915775 109.55680653 102.13093943 106.11678077 108.04272461 100.04638672 C111.21383558 95.94313362 112.38292791 91.27767181 113.54272461 86.29638672 C113.72577148 85.65314453 113.90881836 85.00990234 114.09741211 84.34716797 C116.16875895 74.80807069 114.13195502 66.55053068 109.37475586 58.26123047 C104.87011886 51.39493912 98.41968452 48.06520324 90.54272461 46.29638672 C79.49784961 44.83430598 69.84555602 48.96474996 62.54272461 57.29638672 Z M60.54272461 93.29638672 C61.04876453 95.46512923 61.54256274 97.29606299 62.54272461 99.29638672 C63.20272461 99.29638672 63.86272461 99.29638672 64.54272461 99.29638672 C63.88272461 97.31638672 63.22272461 95.33638672 62.54272461 93.29638672 C61.88272461 93.29638672 61.22272461 93.29638672 60.54272461 93.29638672 Z M64.54272461 99.29638672 C65.20272461 100.61638672 65.86272461 101.93638672 66.54272461 103.29638672 C67.20272461 102.96638672 67.86272461 102.63638672 68.54272461 102.29638672 C67.22272461 101.30638672 65.90272461 100.31638672 64.54272461 99.29638672 Z M69.54272461 104.29638672 C70.53272461 105.28638672 71.52272461 106.27638672 72.54272461 107.29638672 C73.53272461 106.96638672 74.52272461 106.63638672 75.54272461 106.29638672 C73.56272461 105.63638672 71.58272461 104.97638672 69.54272461 104.29638672 Z " fill="#796046" transform="translate(774.457275390625,575.70361328125)"/>
<path d="M0 0 C77.85714286 0 77.85714286 0 96.3125 12.1875 C105.02622064 21.30650997 107.35663802 32.19290776 107.3125 44.375 C107.32861328 45.25671875 107.34472656 46.1384375 107.36132812 47.046875 C107.36955923 58.2741087 103.86495728 68.76550273 96.078125 77.04296875 C86.22348081 86 86.22348081 86 81 86 C81.40089844 86.70157227 81.80179688 87.40314453 82.21484375 88.12597656 C82.78332031 89.12081055 83.35179687 90.11564453 83.9375 91.140625 C84.5780835 92.26154541 85.21866699 93.38246582 85.87866211 94.53735352 C87.30441582 97.03237059 88.72965239 99.52768215 90.15454102 102.02319336 C93.58220043 108.02533063 97.01244127 114.02590935 100.45736694 120.01815796 C101.93132643 122.58234461 103.40335418 125.14763769 104.87524414 127.7130127 C105.58195824 128.94346837 106.28963697 130.17337053 106.99829102 131.40270996 C107.98957192 133.12254374 108.97729066 134.8444292 109.96484375 136.56640625 C110.5280835 137.54552979 111.09132324 138.52465332 111.67163086 139.53344727 C113 142 113 142 114 145 C102.12 145 90.24 145 78 145 C76.2675 141.65875 74.535 138.3175 72.75 134.875 C65.41500107 120.78065514 57.88323706 106.79566485 50 93 C44.06 92.67 38.12 92.34 32 92 C32 109.49 32 126.98 32 145 C21.44 145 10.88 145 0 145 C0 97.15 0 49.3 0 0 Z M32 25 C32 38.86 32 52.72 32 67 C54.30147236 68.14372499 54.30147236 68.14372499 72.8125 58.25 C76.94485549 52.11050041 77.49253636 46.50297365 76.53515625 39.328125 C75.42102136 34.48123162 72.988736 31.7909888 69.1875 28.75 C61.28601657 24.41193067 53.90539448 24.75536551 45.0625 24.875 C40.751875 24.91625 36.44125 24.9575 32 25 Z " fill="#7A6147" transform="translate(1093,759)"/>
<path d="M0 0 C3.53316133 2.81830045 6.79972205 5.81103046 10 9 C10.84691406 9.81210937 10.84691406 9.81210937 11.7109375 10.640625 C27.27360107 26.94436779 28.55817175 51.2710349 28.26953125 72.3984375 C27.74332171 93.48310944 20.20026986 112.31279161 4.9375 127.125 C-9.24169111 139.18573811 -26.47263377 142.1754634 -44.53710938 141.21142578 C-61.38776103 139.76488887 -74.52519641 132.22130327 -85.93359375 119.9140625 C-101.77378511 100.93405593 -104.61504343 75.99382876 -102.69140625 52.1796875 C-100.36465229 33.77156325 -93.65063463 16.11447688 -79.36328125 3.7109375 C-57.2584653 -13.12782387 -23.45254162 -16.38415581 0 0 Z M-59 26 C-70.3648283 39.97314955 -72.06665826 57.75901362 -70.375 75.125 C-68.86156172 88.0702534 -64.42872364 98.42177116 -55.3125 107.75 C-49.84061322 111.98676273 -42.05129542 114.82088147 -35.09375 114.37890625 C-25.42761993 112.62962525 -18.41001662 108.53554291 -12.31640625 100.88671875 C-2.34655649 86.09355015 -2.12273071 66.07481651 -4.47265625 48.9609375 C-6.53915051 38.59134357 -11.41200201 28.47185886 -20 22 C-32.34670887 14.33894915 -48.71930532 15.37080719 -59 26 Z " fill="#7A6147" transform="translate(1038,766)"/>
<path d="M0 0 C15.07010646 12.37335057 22.64235456 29.66395459 24.99609375 48.76953125 C27.07886324 74.55987447 23.58903658 99.74514155 6.60546875 120.265625 C-4.89618132 132.4138755 -20.76165256 138.57271712 -37.2590332 139.09179688 C-55.79017898 139.31627677 -71.92162843 134.50400112 -85.6875 121.6875 C-103.37363987 103.29775239 -106.12807657 79.89368095 -105.8984375 55.61328125 C-105.51234098 37.81709143 -100.23932909 21.39961209 -88.6875 7.6875 C-88.15640625 7.04425781 -87.6253125 6.40101563 -87.078125 5.73828125 C-65.57745865 -17.94438342 -24.75644909 -18.27657315 0 0 Z M-63.9375 25.8125 C-74.64268723 39.31293056 -75.11007474 58.36422388 -73.48095703 74.76708984 C-71.93426182 86.14948009 -67.2454558 98.85987533 -57.87890625 106.08203125 C-50.62829302 110.98644215 -43.11133087 112.68748721 -34.37890625 111.328125 C-25.50325795 109.27883335 -18.94249015 103.32656838 -13.8125 95.9375 C-5.19695071 80.66170339 -4.30291507 59.4722392 -8.6875 42.6875 C-11.99668565 32.46263341 -16.93952338 23.04254994 -26.57421875 17.6171875 C-40.22919806 11.61000621 -53.79458391 15.20264659 -63.9375 25.8125 Z " fill="#7A6147" transform="translate(845.6875,768.3125)"/>
<path d="M0 0 C10.23 0 20.46 0 31 0 C31.33 19.47 31.66 38.94 32 59 C42.8609058 45.0666731 42.8609058 45.0666731 53.21875 30.85546875 C57.47677252 24.88097134 61.9923486 19.09377863 66.46826172 13.28198242 C67.12584473 12.42580322 67.78342773 11.56962402 68.4609375 10.6875 C69.04665527 9.92824219 69.63237305 9.16898438 70.23583984 8.38671875 C72.13390734 5.9440142 72.13390734 5.9440142 73.71826172 2.74365234 C76 0 76 0 79.66699219 -0.68115234 C81.12729776 -0.6802075 82.5878293 -0.64659135 84.046875 -0.5859375 C84.81807678 -0.57744781 85.58927856 -0.56895813 86.3838501 -0.56021118 C88.84067097 -0.52669295 91.29417628 -0.45142904 93.75 -0.375 C95.41792125 -0.34489779 97.08589409 -0.31752241 98.75390625 -0.29296875 C102.83720981 -0.22690845 106.91804339 -0.12340799 111 0 C109.32742994 3.47085917 107.33571497 6.36353227 105 9.4375 C104.60482178 9.95900635 104.20964355 10.4805127 103.80249023 11.01782227 C102.53919575 12.68180054 101.27050106 14.34151901 100 16 C99.59152832 16.53367187 99.18305664 17.06734375 98.76220703 17.6171875 C96.27029265 20.86966628 93.76975159 24.11542762 91.26611328 27.35888672 C90.00808442 28.98952112 88.75173145 30.62143004 87.49609375 32.25390625 C87.08343262 32.79031738 86.67077148 33.32672852 86.24560547 33.87939453 C85.41965233 34.9540078 84.59444839 36.02919735 83.77001953 37.10498047 C81.59423395 39.94150283 79.40184026 42.76292672 77.18359375 45.56640625 C76.49426758 46.44425781 76.49426758 46.44425781 75.79101562 47.33984375 C74.91093692 48.45994393 74.02577543 49.57607548 73.13476562 50.6875 C70.14814468 54.46542866 70.14814468 54.46542866 69 59 C70.20118711 61.85155638 70.20118711 61.85155638 72.09375 64.85546875 C72.60035156 65.70997368 72.60035156 65.70997368 73.1171875 66.58174133 C74.23317444 68.45754816 75.36642737 70.32227713 76.5 72.1875 C77.28562102 73.50063516 78.07011307 74.81444637 78.85351562 76.12890625 C80.84684351 79.46707295 82.85412074 82.79659062 84.86621094 86.12347412 C86.54224647 88.89746812 88.20860555 91.6772378 89.875 94.45703125 C91.68199768 97.47022281 93.48973517 100.48294156 95.30126953 103.4934082 C99.98094983 111.27520129 104.61623211 119.08243176 109.21899414 126.90991211 C109.98445135 128.21110854 110.75087714 129.51173571 111.51831055 130.81176758 C112.58540407 132.62023 113.64871216 134.43086251 114.7109375 136.2421875 C115.32243652 137.2822998 115.93393555 138.32241211 116.56396484 139.39404297 C118 142 118 142 119 145 C107.45 145 95.9 145 84 145 C81.97875 141.37 79.9575 137.74 77.875 134 C71.28017221 122.19498461 64.51371453 110.4967622 57.66455078 98.83740234 C54.76649789 93.89736557 51.88372912 88.94840771 49 84 C45.65029326 87.27924724 42.76123691 90.76606304 39.9375 94.5 C39.50373047 95.06847656 39.06996094 95.63695312 38.62304688 96.22265625 C37.41153342 97.81219141 36.20558855 99.40596639 35 101 C34.46729492 101.5352832 33.93458984 102.07056641 33.38574219 102.62207031 C31.23521153 106.31237487 31.51969563 109.94065379 31.48828125 114.140625 C31.47033005 115.02280701 31.45237885 115.90498901 31.43388367 116.81390381 C31.37979029 119.62588755 31.34588824 122.43770165 31.3125 125.25 C31.27932605 127.15887777 31.24483632 129.06773315 31.20898438 130.9765625 C31.12159148 135.65106595 31.06151582 140.32479791 31 145 C20.77 145 10.54 145 0 145 C0 97.15 0 49.3 0 0 Z " fill="#7A6147" transform="translate(618,759)"/>
<path d="M0 0 C12.54 0 25.08 0 38 0 C60.22259173 69.45053312 60.22259173 69.45053312 71.1875 104.1875 C71.56018005 105.36770721 71.93286011 106.54791443 72.3168335 107.7638855 C74.28587298 114.0012227 76.25034318 120.23996013 78.20794678 126.480896 C78.92422397 128.75899636 79.64596349 131.03527379 80.36962891 133.31103516 C80.92336182 135.06939697 80.92336182 135.06939697 81.48828125 136.86328125 C81.78903564 137.81114502 82.08979004 138.75900879 82.3996582 139.7355957 C83 142 83 142 83 145 C72.11 145 61.22 145 50 145 C48.23900137 138.85607145 46.4801859 132.71171279 44.73095703 126.56445312 C44.13519201 124.47430091 43.53503625 122.3854006 42.93359375 120.296875 C42.66675781 119.35328125 42.39992188 118.4096875 42.125 117.4375 C41.90070313 116.65246094 41.67640625 115.86742187 41.4453125 115.05859375 C41 113 41 113 41 109 C26.15 109 11.3 109 -4 109 C-5.32 114.61 -6.64 120.22 -8 126 C-8.87155933 129.34528432 -9.75068931 132.67447265 -10.6875 136 C-10.89955078 136.7734375 -11.11160156 137.546875 -11.33007812 138.34375 C-12.87301587 143.87301587 -12.87301587 143.87301587 -14 145 C-16.3756852 145.0883967 -18.72208674 145.11530305 -21.09765625 145.09765625 C-22.16094398 145.09553383 -22.16094398 145.09553383 -23.24571228 145.09336853 C-25.51801712 145.08775443 -27.79022475 145.07519963 -30.0625 145.0625 C-31.59960796 145.05748681 -33.13671745 145.05292359 -34.67382812 145.04882812 C-38.44925642 145.03778042 -42.22461171 145.02050641 -46 145 C-41.54785902 129.30151153 -36.50977769 113.78552908 -31.53237534 98.24802017 C-29.32264561 91.34749622 -27.11866232 84.44513291 -24.9140625 77.54296875 C-24.6671208 76.77006186 -24.4201791 75.99715496 -24.16575432 75.20082664 C-20.61791878 64.09497526 -17.09086012 52.98274913 -13.5859375 41.86328125 C-13.26919728 40.85862635 -13.26919728 40.85862635 -12.94605827 39.83367538 C-10.75126575 32.87134927 -8.560278 25.90783502 -6.37231445 18.94335938 C-5.66880057 16.70832766 -4.9652697 14.47330129 -4.26171875 12.23828125 C-3.94298798 11.22083328 -3.6242572 10.20338531 -3.29586792 9.15510559 C-2.86070358 7.77375679 -2.86070358 7.77375679 -2.41674805 6.36450195 C-2.1655571 5.56446243 -1.91436615 4.76442291 -1.65556335 3.94013977 C-1 2 -1 2 0 0 Z M18 25 C14.64238404 36.91659932 11.42496847 48.86295119 8.3503418 60.85571289 C7.67432478 63.48881784 6.99248458 66.1203761 6.31054688 68.75195312 C5.87725327 70.43740983 5.4442971 72.12295333 5.01171875 73.80859375 C4.80866623 74.58972031 4.60561371 75.37084686 4.39640808 76.17564392 C3.62709289 79.19526127 3 81.87027865 3 85 C13.23 85 23.46 85 34 85 C30.93662983 71.76186462 27.63661148 58.59624187 24.25 45.4375 C23.73812615 43.44339918 23.2264065 41.44925877 22.71484375 39.45507812 C21.47833357 34.63626208 20.23975933 29.8179811 19 25 C18.67 25 18.34 25 18 25 Z " fill="#7A6147" transform="translate(519,759)"/>
<path d="M0 0 C1.42600125 1.19730294 2.8464024 2.40151005 4.25 3.625 C3.30880763 8.71352015 0.12964672 11.95153628 -3.0625 15.875 C-3.64451172 16.62007812 -4.22652344 17.36515625 -4.82617188 18.1328125 C-5.39529297 18.83664062 -5.96441406 19.54046875 -6.55078125 20.265625 C-7.06809814 20.91047852 -7.58541504 21.55533203 -8.1184082 22.21972656 C-9.75 23.625 -9.75 23.625 -13.75 23.625 C-16.046875 22.41796875 -16.046875 22.41796875 -18.5 20.8125 C-27.88498093 15.02031381 -38.02363076 11.91258953 -49.1875 14.3125 C-53.36575557 15.85185731 -57.67235979 17.46971958 -59.75 21.625 C-59.94758231 23.70064676 -59.94758231 23.70064676 -59.9375 26 C-59.95167969 26.77085937 -59.96585937 27.54171875 -59.98046875 28.3359375 C-59.71985541 30.92440222 -59.06484905 32.38997466 -57.75 34.625 C-49.75330294 40.66062649 -39.92568003 43.76062742 -30.66674805 47.39013672 C-15.66488562 53.29341426 -0.85969725 59.58009807 6.25 75.015625 C10.55556198 86.25045079 10.16927367 97.33867057 6.25 108.625 C0.32018277 121.23933847 -9.32354019 129.14130833 -22.34375 133.953125 C-38.55997975 138.93838556 -55.79279188 137.92076567 -71.75 132.625 C-73.31427734 132.11646484 -73.31427734 132.11646484 -74.91015625 131.59765625 C-80.96512596 129.35596127 -86.16712318 126.23554929 -91.4375 122.5625 C-92.35716553 121.92707275 -92.35716553 121.92707275 -93.29541016 121.27880859 C-95.60391924 119.5955344 -97.47396635 118.11373082 -98.890625 115.60546875 C-98.66875374 112.4807818 -96.96796222 111.20208619 -94.8125 109 C-90.15115913 104.09024911 -85.91466782 98.95849829 -81.75 93.625 C-78.84695652 94.99534044 -76.3044037 96.58365607 -73.6875 98.4375 C-62.71296104 105.80792107 -50.43713267 110.52599968 -37.13671875 108.16015625 C-32.99513561 107.12322655 -29.64011748 106.05736005 -26.6875 102.875 C-24.49316512 99.19418019 -23.75 96.90774878 -23.75 92.625 C-25.78294053 86.86500183 -29.17321862 83.94346853 -34.54223633 81.19628906 C-35.54536865 80.76541992 -36.54850098 80.33455078 -37.58203125 79.890625 C-38.70295166 79.40311768 -39.82387207 78.91561035 -40.97875977 78.41333008 C-42.16139404 77.90568115 -43.34402832 77.39803223 -44.5625 76.875 C-47.00751448 75.80596064 -49.44887849 74.72885121 -51.890625 73.65234375 C-53.07076172 73.13269043 -54.25089844 72.61303711 -55.46679688 72.07763672 C-69.46641124 65.88357772 -83.95885395 59.24310683 -90.7109375 44.53125 C-94.41320043 34.34153551 -94.27294997 21.96290429 -90.00390625 12.01171875 C-83.16682057 -1.0021733 -72.06608929 -8.63295457 -58.29296875 -13.1875 C-38.09319799 -18.14281003 -16.10564344 -12.76721875 0 0 Z " fill="#7A6147" transform="translate(458.75,770.375)"/>
<path d="M0 0 C10 0 10 0 12.234375 1.66796875 C12.73453125 2.49941406 13.2346875 3.33085938 13.75 4.1875 C14.37390625 5.1671875 14.9978125 6.146875 15.640625 7.15625 C15.99447266 7.74019531 16.34832031 8.32414063 16.71289062 8.92578125 C18.83963692 12.35310229 21.11817932 15.67829093 23.37402344 19.02148438 C26.26984795 23.33396166 29.13133017 27.66941189 32 32 C32.33 21.44 32.66 10.88 33 0 C36.63 0 40.26 0 44 0 C44 18.15 44 36.3 44 55 C34 55 34 55 31.765625 53.33203125 C31.01539063 52.08486328 31.01539063 52.08486328 30.25 50.8125 C29.62609375 49.8328125 29.0021875 48.853125 28.359375 47.84375 C28.00552734 47.25980469 27.65167969 46.67585937 27.28710938 46.07421875 C25.16036308 42.64689771 22.88182068 39.32170907 20.62597656 35.97851562 C17.73015205 31.66603834 14.86866983 27.33058811 12 23 C11.67 33.56 11.34 44.12 11 55 C7.37 55 3.74 55 0 55 C0 36.85 0 18.7 0 0 Z " fill="#7A6147" transform="translate(649,925)"/>
<path d="M0 0 C5.36998652 3.16445634 7.32170752 7.80330396 9.13256836 13.46289062 C10.21249883 17.95512809 10.18244351 22.37007825 10.125 26.96875 C10.13660156 27.89365234 10.14820313 28.81855469 10.16015625 29.77148438 C10.12824621 37.36075518 8.96861405 44.43556517 4.9375 50.96875 C-0.77044267 56.35052451 -6.45322292 56.55667536 -13.9609375 56.3828125 C-18.0907454 55.9413841 -20.27338841 54.9295297 -23.25 52.03125 C-23.9925 51.309375 -24.735 50.5875 -25.5 49.84375 C-27.8975248 45.99058514 -28.45127241 42.49081239 -29.25 38.03125 C-25.62 38.03125 -21.99 38.03125 -18.25 38.03125 C-17.79625 39.000625 -17.3425 39.97 -16.875 40.96875 C-15.59213779 44.10204582 -15.59213779 44.10204582 -13.25 45.03125 C-8.65593543 45.46818587 -8.65593543 45.46818587 -4.4375 43.96875 C-2.71342659 41.15578812 -2.0312393 38.21630255 -1.25 35.03125 C-1.96542969 35.35222656 -2.68085937 35.67320312 -3.41796875 36.00390625 C-8.64547514 37.90022926 -14.36690698 38.14713152 -19.6015625 36.12109375 C-24.99898581 32.97765059 -28.25605199 29.01309403 -30.25 23.03125 C-30.95549952 15.87216471 -30.56662715 9.95960483 -26.25 4.03125 C-18.99415279 -3.03854985 -9.201222 -4.00698377 0 0 Z M-17.25 11.03125 C-19.57880181 14.24721441 -19.5742679 17.14003524 -19.25 21.03125 C-18.39986429 23.58165714 -17.71852322 24.68419576 -15.5625 26.28125 C-12.22306183 27.36431103 -9.74126017 27.46000125 -6.25 27.03125 C-3.33631776 25.04746635 -1.61441231 23.61676319 -0.8046875 20.09375 C-0.59768501 16.45050614 -1.08093367 14.3490947 -2.8125 11.09375 C-7.62624177 7.02058389 -12.44030362 7.046073 -17.25 11.03125 Z " fill="#7A6147" transform="translate(866.25,923.96875)"/>
<path d="M0 0 C4.78366587 3.73193791 7.94839361 8.89378967 9.1875 14.8125 C-2.33258576 15.88930327 -2.33258576 15.88930327 -5.90625 13.2890625 C-7.4375 11.375 -7.4375 11.375 -8.6640625 9.44140625 C-9.80106664 7.48679134 -9.80106664 7.48679134 -12.8125 6.8125 C-17.80705908 6.28811428 -21.69206656 6.26246904 -26.25 8.5 C-30.14389948 12.01400685 -32.53996739 15.76747219 -33.015625 21.08203125 C-33.13849305 27.74762271 -32.29367719 31.94363888 -27.8125 37.125 C-24.51865255 39.90418378 -21.5929022 39.97153834 -17.4375 40 C-16.50164063 40.01417969 -15.56578125 40.02835938 -14.6015625 40.04296875 C-11.61421745 39.79611531 -9.48700444 39.14975222 -6.8125 37.8125 C-5.51184079 35.87866713 -5.51184079 35.87866713 -4.8125 33.8125 C-4.3175 32.8225 -4.3175 32.8225 -3.8125 31.8125 C0.4775 31.8125 4.7675 31.8125 9.1875 31.8125 C6.53831626 39.76005122 3.70844108 44.8396116 -3.875 48.75 C-12.06238577 52.56560632 -19.77841651 52.62349282 -28.31640625 49.85546875 C-34.77848966 47.15534939 -39.46984311 42.98355887 -42.8125 36.8125 C-45.78207847 29.38855382 -46.21089413 19.92986664 -44.08984375 12.16796875 C-40.78380369 5.16773009 -34.10465765 -1.16249293 -26.83203125 -3.9453125 C-17.53610106 -6.49854671 -8.15724812 -5.26044759 0 0 Z " fill="#7A6147" transform="translate(742.8125,929.1875)"/>
<path d="M0 0 C4.08392313 3.65196973 5.00056163 8.20784271 5.625 13.453125 C1.57102128 13.79733074 -2.33494906 14.00700295 -6.375 13.453125 C-8.625 10.453125 -8.625 10.453125 -10.375 7.453125 C-13.83007803 6.67678156 -17.1691132 6.8501816 -20.375 8.453125 C-20.79246608 11.32677291 -20.79246608 11.32677291 -20.375 14.453125 C-16.9636192 16.95893926 -13.46356645 18.18332322 -9.4375 19.390625 C1.04311655 22.82837023 1.04311655 22.82837023 3.6796875 27.203125 C5.91725188 32.27229741 5.91938864 36.1029853 4.625 41.453125 C1.92086876 46.86138748 -1.06898468 48.93974932 -6.375 51.453125 C-12.49284539 53.28847862 -18.55360064 52.96231968 -24.4453125 50.578125 C-28.41721275 48.26252324 -31.33432389 44.53447722 -33.375 40.453125 C-33.41522391 38.1201384 -33.41820247 35.78605834 -33.375 33.453125 C-29.745 33.453125 -26.115 33.453125 -22.375 33.453125 C-21.715 35.763125 -21.055 38.073125 -20.375 40.453125 C-15.71962607 41.29109231 -12.00421525 41.4692942 -7.375 40.453125 C-7.045 37.813125 -6.715 35.173125 -6.375 32.453125 C-8.2621875 31.834375 -8.2621875 31.834375 -10.1875 31.203125 C-11.00476563 30.92597656 -11.82203125 30.64882813 -12.6640625 30.36328125 C-14.50578765 29.74494989 -16.35526036 29.1493253 -18.2109375 28.57421875 C-29.29518506 24.94526647 -29.29518506 24.94526647 -32.375 19.453125 C-33.80096888 14.52334688 -33.68604442 10.56922558 -32.3125 5.640625 C-29.24841663 0.59971365 -26.16345158 -1.89110942 -20.625 -3.921875 C-13.1078561 -5.39948153 -6.30904761 -4.42650921 0 0 Z " fill="#7A6147" transform="translate(620.375,928.546875)"/>
<path d="M0 0 C10.56 0 21.12 0 32 0 C32 3.3 32 6.6 32 10 C25.4 10 18.8 10 12 10 C12 13.96 12 17.92 12 22 C17.94 22 23.88 22 30 22 C30 25.3 30 28.6 30 32 C24.06 32 18.12 32 12 32 C12 36.29 12 40.58 12 45 C18.6 45 25.2 45 32 45 C32 48.3 32 51.6 32 55 C21.44 55 10.88 55 0 55 C0 36.85 0 18.7 0 0 Z " fill="#7A6147" transform="translate(756,925)"/>
<path d="M0 0 C12.87 0 25.74 0 39 0 C39 11.25 39 11.25 37.1640625 15.44970703 C36.56343994 16.86003708 36.56343994 16.86003708 35.95068359 18.29885864 C35.51320801 19.27531342 35.07573242 20.25176819 34.625 21.2578125 C34.1810791 22.28687714 33.7371582 23.31594177 33.27978516 24.37619019 C31.87006478 27.63344326 30.43557041 30.87906932 29 34.125 C28.03479544 36.34302711 27.07123644 38.56177108 26.109375 40.78125 C23.75853618 46.19597755 21.3854298 51.60042739 19 57 C15.04 57 11.08 57 7 57 C8.9716301 50.85032831 11.20076752 44.93931387 13.79296875 39.02734375 C14.14386063 38.21882462 14.4947525 37.41030548 14.85627747 36.57728577 C15.96312426 34.02912408 17.07521021 31.48328976 18.1875 28.9375 C18.94501112 27.19611561 19.70217576 25.45458045 20.45898438 23.71289062 C22.3013566 19.47321478 24.15081711 15.23673548 26 11 C13.13 10.505 13.13 10.505 0 10 C0 6.7 0 3.4 0 0 Z " fill="#7A6147" transform="translate(879,923)"/>
<path d="M0 0 C12.87 0 25.74 0 39 0 C39 10.12533866 39 10.12533866 37.50292969 13.56665039 C37.17548767 14.34097916 36.84804565 15.11530792 36.51068115 15.9131012 C36.15137512 16.71650436 35.79206909 17.51990753 35.421875 18.34765625 C35.05402893 19.20379013 34.68618286 20.05992401 34.30718994 20.94200134 C33.13657859 23.65568707 31.94352818 26.35882781 30.75 29.0625 C29.96340038 30.88023546 29.17823095 32.69859051 28.39453125 34.51757812 C25.10604708 42.11151369 21.75529934 49.62351916 18 57 C14.37 57 10.74 57 7 57 C7.88714304 52.56428478 9.19766266 48.90676538 11.01953125 44.828125 C11.46929573 43.80534454 11.46929573 43.80534454 11.92814636 42.76190186 C12.88491925 40.58916836 13.8485924 38.41957625 14.8125 36.25 C15.44902406 34.80749295 16.0850961 33.36478635 16.72070312 31.921875 C19.79873227 24.94122114 22.90151116 17.9715999 26 11 C13.13 10.505 13.13 10.505 0 10 C0 6.7 0 3.4 0 0 Z " fill="#7A6147" transform="translate(919,923)"/>
<path d="M0 0 C5.94 0 11.88 0 18 0 C18.74524369 3.72621844 19.12608949 6.52832054 19.12939453 10.23339844 C19.13254669 11.25085144 19.13569885 12.26830444 19.13894653 13.31658936 C19.1369223 14.40320862 19.13489807 15.48982788 19.1328125 16.609375 C19.13424759 18.29320282 19.13424759 18.29320282 19.13571167 20.01104736 C19.13639107 22.37797095 19.1345535 24.74489642 19.13037109 27.11181641 C19.12499946 30.75036754 19.13033447 34.38879635 19.13671875 38.02734375 C19.13605832 40.32552111 19.13477789 42.62369839 19.1328125 44.921875 C19.13483673 46.01659119 19.13686096 47.11130737 19.13894653 48.23919678 C19.13579437 49.24404114 19.13264221 50.2488855 19.12939453 51.28417969 C19.12859894 52.17288757 19.12780334 53.06159546 19.12698364 53.97723389 C19 56 19 56 18 57 C14.37 57 10.74 57 7 57 C7 41.82 7 26.64 7 11 C4.69 11 2.38 11 0 11 C0 7.37 0 3.74 0 0 Z " fill="#796246" transform="translate(810,923)"/>
<path d="M0 0 C3.63 0 7.26 0 11 0 C11 18.15 11 36.3 11 55 C7.37 55 3.74 55 0 55 C0 36.85 0 18.7 0 0 Z " fill="#7A6147" transform="translate(631,925)"/>
<path d="M0 0 C2.92071238 5.84142475 1.07166451 13.69556346 -0.5625 19.6875 C-2.93251839 26.64065498 -5.95066581 31.80999029 -12.53515625 35.37109375 C-16.62226264 37.11067217 -19.51044002 38 -24 38 C-24.57463794 26.61365555 -22.47860544 17.84860859 -15 9 C-5.12571429 0 -5.12571429 0 0 0 Z " fill="#785F46" transform="translate(729,646)"/>
<path d="M0 0 C3.67067782 3.31256292 5.27179413 5.93660757 5.87890625 10.8984375 C6.1486757 17.25107293 5.61925229 21.34297844 1.5625 26.3125 C-3.16164355 29.75569357 -7.57280887 31.05891524 -13.4375 30.3125 C-18.60328678 28.64894155 -21.53767916 26.93073319 -24.4375 22.3125 C-26.87363932 17.20820809 -26.74509883 12.70755593 -25.4375 7.3125 C-23.1932492 2.55468831 -20.44021621 0.04668689 -15.71875 -2.05859375 C-10.11899958 -3.60236056 -5.11493183 -2.51096653 0 0 Z M-20.4375 7.3125 C-21.94400776 11.83202327 -22.18313919 15.67209378 -20.1875 20.0625 C-17.80951686 23.11990689 -16.3304071 25.02128352 -12.35546875 25.6328125 C-8.35843987 25.83166966 -6.02104629 25.64772872 -2.5 23.625 C0.17595251 20.62468961 1.52718719 18.48423763 1.59375 14.390625 C1.23318009 9.5950452 0.04924656 6.79924656 -3.4375 3.3125 C-10.03841782 0.01204109 -15.75479013 2.27858689 -20.4375 7.3125 Z " fill="#796046" transform="translate(1208.4375,730.6875)"/>
<path d="M0 0 C8.3984375 -0.1953125 8.3984375 -0.1953125 11 0 C13 2 13 2 13.125 5.125 C13.08375 6.07375 13.0425 7.0225 13 8 C12.34 8 11.68 8 11 8 C11.99 10.97 12.98 13.94 14 17 C12.35 17 10.7 17 9 17 C8.54625 16.030625 8.0925 15.06125 7.625 14.0625 C6.34213779 10.92920418 6.34213779 10.92920418 4 10 C4 12.31 4 14.62 4 17 C2.68 17 1.36 17 0 17 C0 11.39 0 5.78 0 0 Z M4 3 C4 4.32 4 5.64 4 7 C5.65 6.67 7.3 6.34 9 6 C9 5.34 9 4.68 9 4 C7.35 3.67 5.7 3.34 4 3 Z " fill="#796147" transform="translate(1192,736)"/>
</svg>
